<mxfile host="app.diagrams.net" modified="2021-08-27T07:31:24.131Z" agent="5.0 (Windows NT 10.0; Win64; x64) AppleWebKit/537.36 (KHTML, like Gecko) Chrome/92.0.4515.159 Safari/537.36 Edg/92.0.902.78" etag="Z-uhVD0V-GWANeOqY_oF" version="15.0.2" type="github">
  <diagram id="nYiRIeSHOg5MPnFf_H3z" name="Page-1">
    <mxGraphModel dx="1038" dy="588" grid="1" gridSize="10" guides="1" tooltips="1" connect="1" arrows="1" fold="1" page="1" pageScale="1" pageWidth="827" pageHeight="1169" math="0" shadow="0">
      <root>
        <mxCell id="0" />
        <mxCell id="1" parent="0" />
        <mxCell id="MIB-RSdA4s0meyl00Pk_-3" value="시작" style="rounded=1;whiteSpace=wrap;html=1;" parent="1" vertex="1">
          <mxGeometry x="70" y="90" width="80" height="30" as="geometry" />
        </mxCell>
        <mxCell id="MIB-RSdA4s0meyl00Pk_-12" value="&lt;font style=&quot;font-size: 10px&quot;&gt;투자사 프로필 &lt;br&gt;등록 유무&lt;/font&gt;" style="rhombus;whiteSpace=wrap;html=1;" parent="1" vertex="1">
          <mxGeometry x="210" y="150" width="100" height="60" as="geometry" />
        </mxCell>
        <mxCell id="MIB-RSdA4s0meyl00Pk_-17" value="No" style="text;html=1;resizable=0;autosize=1;align=center;verticalAlign=middle;points=[];fillColor=none;strokeColor=none;rounded=0;" parent="1" vertex="1">
          <mxGeometry x="320" y="150" width="30" height="20" as="geometry" />
        </mxCell>
        <mxCell id="MIB-RSdA4s0meyl00Pk_-18" value="" style="endArrow=classic;html=1;" parent="1" edge="1">
          <mxGeometry width="50" height="50" relative="1" as="geometry">
            <mxPoint x="310" y="179.5" as="sourcePoint" />
            <mxPoint x="360" y="179.5" as="targetPoint" />
            <Array as="points">
              <mxPoint x="320" y="179.5" />
            </Array>
          </mxGeometry>
        </mxCell>
        <mxCell id="MIB-RSdA4s0meyl00Pk_-19" value="" style="endArrow=classic;html=1;" parent="1" edge="1">
          <mxGeometry width="50" height="50" relative="1" as="geometry">
            <mxPoint x="259.5" y="210" as="sourcePoint" />
            <mxPoint x="260" y="260" as="targetPoint" />
            <Array as="points">
              <mxPoint x="259.5" y="220" />
            </Array>
          </mxGeometry>
        </mxCell>
        <mxCell id="MIB-RSdA4s0meyl00Pk_-20" value="Yes" style="text;html=1;resizable=0;autosize=1;align=center;verticalAlign=middle;points=[];fillColor=none;strokeColor=none;rounded=0;" parent="1" vertex="1">
          <mxGeometry x="270" y="210" width="30" height="20" as="geometry" />
        </mxCell>
        <mxCell id="MIB-RSdA4s0meyl00Pk_-21" value="&lt;font style=&quot;font-size: 10px&quot;&gt;투자사 정보입력&lt;/font&gt;" style="shape=parallelogram;perimeter=parallelogramPerimeter;whiteSpace=wrap;html=1;fixedSize=1;" parent="1" vertex="1">
          <mxGeometry x="360" y="160" width="100" height="40" as="geometry" />
        </mxCell>
        <mxCell id="MIB-RSdA4s0meyl00Pk_-22" value="" style="endArrow=none;dashed=1;html=1;dashPattern=1 3;strokeWidth=2;startArrow=none;" parent="1" source="MIB-RSdA4s0meyl00Pk_-23" edge="1">
          <mxGeometry width="50" height="50" relative="1" as="geometry">
            <mxPoint x="420" y="160" as="sourcePoint" />
            <mxPoint x="420" y="120" as="targetPoint" />
          </mxGeometry>
        </mxCell>
        <mxCell id="MIB-RSdA4s0meyl00Pk_-24" value="&lt;div style=&quot;text-align: left&quot;&gt;&lt;span style=&quot;font-size: 8px&quot;&gt;*입력정보&lt;/span&gt;&lt;/div&gt;&lt;span style=&quot;font-size: 8px&quot;&gt;&lt;div style=&quot;text-align: left&quot;&gt;&lt;span&gt;투자사명, 로고, 대표자명, 투자사설립일, 홈페이지, 투자사종류,&lt;/span&gt;&lt;/div&gt;&lt;div style=&quot;text-align: left&quot;&gt;&lt;span&gt;포트폴리오(선택, 기업명,비즈니스분야,활용기술, 투자단계, 투자금액, 투자년월),&lt;/span&gt;&lt;/div&gt;&lt;div style=&quot;text-align: left&quot;&gt;&lt;span&gt;희망투자단계, 비즈니스분야, 관심기술&amp;nbsp;&lt;/span&gt;&lt;/div&gt;&lt;/span&gt;" style="text;html=1;resizable=0;autosize=1;align=center;verticalAlign=middle;points=[];fillColor=none;strokeColor=none;rounded=0;" parent="1" vertex="1">
          <mxGeometry x="460" y="90" width="370" height="60" as="geometry" />
        </mxCell>
        <mxCell id="MIB-RSdA4s0meyl00Pk_-26" value="&lt;font style=&quot;font-size: 10px&quot;&gt;스타트업 프로필 &lt;br&gt;등록 유무&lt;/font&gt;" style="rhombus;whiteSpace=wrap;html=1;" parent="1" vertex="1">
          <mxGeometry x="60" y="425" width="100" height="60" as="geometry" />
        </mxCell>
        <mxCell id="MIB-RSdA4s0meyl00Pk_-28" value="" style="endArrow=classic;html=1;" parent="1" edge="1">
          <mxGeometry width="50" height="50" relative="1" as="geometry">
            <mxPoint x="460" y="179.5" as="sourcePoint" />
            <mxPoint x="510" y="179.5" as="targetPoint" />
            <Array as="points">
              <mxPoint x="470" y="179.5" />
            </Array>
          </mxGeometry>
        </mxCell>
        <mxCell id="MIB-RSdA4s0meyl00Pk_-29" value="&lt;font style=&quot;font-size: 10px&quot;&gt;관리자 승인여부&lt;/font&gt;" style="rhombus;whiteSpace=wrap;html=1;" parent="1" vertex="1">
          <mxGeometry x="510" y="150" width="100" height="60" as="geometry" />
        </mxCell>
        <mxCell id="MIB-RSdA4s0meyl00Pk_-32" value="" style="endArrow=classic;html=1;" parent="1" edge="1">
          <mxGeometry width="50" height="50" relative="1" as="geometry">
            <mxPoint x="610" y="179.5" as="sourcePoint" />
            <mxPoint x="660" y="179.5" as="targetPoint" />
            <Array as="points">
              <mxPoint x="620" y="179.5" />
            </Array>
          </mxGeometry>
        </mxCell>
        <mxCell id="MIB-RSdA4s0meyl00Pk_-33" value="No" style="text;html=1;resizable=0;autosize=1;align=center;verticalAlign=middle;points=[];fillColor=none;strokeColor=none;rounded=0;" parent="1" vertex="1">
          <mxGeometry x="570" y="220" width="30" height="20" as="geometry" />
        </mxCell>
        <mxCell id="MIB-RSdA4s0meyl00Pk_-34" value="Yes" style="text;html=1;resizable=0;autosize=1;align=center;verticalAlign=middle;points=[];fillColor=none;strokeColor=none;rounded=0;" parent="1" vertex="1">
          <mxGeometry x="610" y="150" width="30" height="20" as="geometry" />
        </mxCell>
        <mxCell id="MIB-RSdA4s0meyl00Pk_-36" value="&lt;font style=&quot;font-size: 10px&quot;&gt;투자사 정보수정&lt;/font&gt;" style="rounded=0;whiteSpace=wrap;html=1;" parent="1" vertex="1">
          <mxGeometry x="215" y="265" width="90" height="30" as="geometry" />
        </mxCell>
        <mxCell id="MIB-RSdA4s0meyl00Pk_-37" value="종료" style="rounded=1;whiteSpace=wrap;html=1;" parent="1" vertex="1">
          <mxGeometry x="670" y="165" width="80" height="30" as="geometry" />
        </mxCell>
        <mxCell id="MIB-RSdA4s0meyl00Pk_-40" value="" style="endArrow=classic;html=1;" parent="1" edge="1">
          <mxGeometry width="50" height="50" relative="1" as="geometry">
            <mxPoint x="560" y="280" as="sourcePoint" />
            <mxPoint x="310" y="279.5" as="targetPoint" />
            <Array as="points">
              <mxPoint x="510" y="279.5" />
            </Array>
          </mxGeometry>
        </mxCell>
        <mxCell id="MIB-RSdA4s0meyl00Pk_-53" value="" style="endArrow=none;html=1;" parent="1" edge="1">
          <mxGeometry width="50" height="50" relative="1" as="geometry">
            <mxPoint x="560" y="280" as="sourcePoint" />
            <mxPoint x="559.5" y="210" as="targetPoint" />
          </mxGeometry>
        </mxCell>
        <mxCell id="MIB-RSdA4s0meyl00Pk_-64" value="" style="endArrow=classic;html=1;" parent="1" edge="1">
          <mxGeometry width="50" height="50" relative="1" as="geometry">
            <mxPoint x="109.5" y="485" as="sourcePoint" />
            <mxPoint x="110" y="525" as="targetPoint" />
            <Array as="points">
              <mxPoint x="109.5" y="495" />
            </Array>
          </mxGeometry>
        </mxCell>
        <mxCell id="MIB-RSdA4s0meyl00Pk_-66" value="" style="endArrow=classic;html=1;" parent="1" edge="1">
          <mxGeometry width="50" height="50" relative="1" as="geometry">
            <mxPoint x="160" y="454.5" as="sourcePoint" />
            <mxPoint x="210" y="454.5" as="targetPoint" />
            <Array as="points">
              <mxPoint x="170" y="454.5" />
            </Array>
          </mxGeometry>
        </mxCell>
        <mxCell id="MIB-RSdA4s0meyl00Pk_-68" value="No" style="text;html=1;resizable=0;autosize=1;align=center;verticalAlign=middle;points=[];fillColor=none;strokeColor=none;rounded=0;" parent="1" vertex="1">
          <mxGeometry x="170" y="425" width="30" height="20" as="geometry" />
        </mxCell>
        <mxCell id="MIB-RSdA4s0meyl00Pk_-69" value="&lt;span style=&quot;font-size: 10px&quot;&gt;스타트업 정보수정&lt;/span&gt;" style="rounded=0;whiteSpace=wrap;html=1;" parent="1" vertex="1">
          <mxGeometry x="65" y="525" width="90" height="30" as="geometry" />
        </mxCell>
        <mxCell id="MIB-RSdA4s0meyl00Pk_-81" value="" style="endArrow=classic;html=1;" parent="1" edge="1">
          <mxGeometry width="50" height="50" relative="1" as="geometry">
            <mxPoint x="560" y="540" as="sourcePoint" />
            <mxPoint x="155" y="539.5" as="targetPoint" />
            <Array as="points">
              <mxPoint x="355" y="539.5" />
            </Array>
          </mxGeometry>
        </mxCell>
        <mxCell id="MIB-RSdA4s0meyl00Pk_-86" value="&lt;font style=&quot;font-size: 10px&quot;&gt;스타트업 정보입력&lt;/font&gt;" style="shape=parallelogram;perimeter=parallelogramPerimeter;whiteSpace=wrap;html=1;fixedSize=1;" parent="1" vertex="1">
          <mxGeometry x="220" y="435" width="100" height="40" as="geometry" />
        </mxCell>
        <mxCell id="MIB-RSdA4s0meyl00Pk_-88" value="" style="shape=image;verticalLabelPosition=bottom;labelBackgroundColor=#ffffff;verticalAlign=top;aspect=fixed;imageAspect=0;image=data:image/png,iVBORw0KGgoAAAANSUhEUgAAADAAAAAmCAYAAACCjRgBAAAHOUlEQVRYCdWZZ2gVWxCAY42dxCgWrFExVhSN2HtH8I/5oUSDiopgB1ETxfJDRey9KxqTWGPBiomgInZBVOwFezf2PvIN7yx7dzfee303z7yBye7dc86c6TPnJEz+5xAWLP+fP3+Ws2fPyunTp+Xo0aMyc+ZMGTBggCQkJCj269dPwL59+yqa32acubNmzZJjx44pjXPnzsnXr1+DZcOa71eA27dvy/bt22XUqFHSrl07qVmzpoSFhYUUa9WqpbTHjBmje927d89i0N+LpwBv376V1atXK9GiRYu6mC1RooSUK1dONY5go0ePVpw4caJaZNWqVZKamqq4cuVKmTFjhiQlJVnzWINFoAEtp0KKFy8uXbp0kXXr1snHjx9/K4NLgB07dkjVqlUtovny5ZO6devKlClTZN68eXLjxg15+fKlZGVl/ZZwIIPQgNbNmzeV9tSpU6VOnTqSP39+a38svnv37mzJ+QiApow2YHru3Lly+fLlbBfn1MCVK1dkzpw5Urt2bYufZcuWeW5nCfD06VPBdAUKFFA3IFj/Nnz69EkmTZokeEHZsmXl3bt3LpYsAa5du6bSli9fPiTu4drpDz88fPhQSpUqJYUKFZJnz565qFgCXL9+XcLDw1UITLd27Vq/AeSiFsIPxMfSpUulWrVqylNUVJQ8f/7ctYOnACYOYmJiZMSIEZKeni4vXrxwLQ71h8ePH+tegwcPlujoaMv/8+TJIyVLlvQvABNbtmyphcZIboQpXbq0IBApcOHChbJkyRI5c+aMvHnzxgfxWyeQCp3zTpw4IYsWLVJaQ4cOVdqRkZEW0+xLfZg/f740bNhQvcOvBVjUuXNn3f/Dhw+qDSxQo0YNDSQjjP1ZpEgRYWOD1atXl+bNm0vHjh0VmzVrpto04zwLFy7sw6ihhwuz19ixY2Xfvn1ilBEbG6v7ByRAhw4dnAqUnz9/Cqlt69atsmLFCmWsTZs20qJFCylTpownM4Ypr2eFChXU0tDo2rWrFixoUw/YywmNGjXS2hCQAFTAYACiJ0+eDApxp2AgYAvkzZtX0A7azi2AcgjgYsWK+Q9ik0YpaOPGjRNS69+CS5cuybBhw6RgwYLqogGnUTKR8VuqMsFItjh06JDkZHV+//69Bi6tNl2v4YFnUGm0bdu2kpaWppnEToR3cjPNVv/+/WXx4sWKFLyLFy9q9ab4+EP6fzpds75Pnz5Ks1KlSj5M487t27cXmkv6MpQZUBB36tRJvYZscP78ea0JELJ3qE7B+E1bTIrE1E7Ehxnzap3ttFBQt27ddE9cyACpnXn0a07wqcRMwmW8gFPTkSNHZMuWLdqlQrR169bSqlUradCggfYqdma83jlbkBJZw9ru3burJaB5/Phxr2312+vXr2XXrl1CbXKCSwC0/Sdw69YtwT3IGlRZO/INa969e9cvaWhs3LhR1q9fLxs2bJDMzMzfrvERgIMEVZIY+K/h8OHD0rRpU584MFbEwjt37vRkyUcAWlaziODKyMiQL1++eC4M5cdp06bpvgQq52I0f+rUKdm8ebNwSouIiNDx+Ph41wWAjwAQoPe29yr16tWTIUOGyN69e+XChQuh5FtpzZ49W5nr2bOn3Llzx5M+2QceUC5PO/gIwAQC6+rVqzJo0CBLcmMVnpwVEIpx+nWDKSkp2ssQcLQKJp3yG3zw4IEGIvONO9y/f1/TI0Ht1QPZGeW9V69eKsTBgwetIZcA9mYOybdt2yaTJ0+W+vXrS8WKFZWAXSDnO9UcC9Klgrgl1dReIEeOHKkMGK06Lfvjxw/p3bu3DBw40EcwzgukYgRmDuASILs0ymSTSgnyTZs2aann/ADSmTZp0kR7d84NnCdAenpSJ2O02RRKbja+f/8uVapU0THlxPYHa5ByaWmcEBcXp0p89eqVDlkCmDMxZfzfAszRdoDZuQbVG+uNHz/e2o5TH3dB3I7QvCEENyOkVHOgp+1mHWkZsATAPJiaQOZiKqeBq0UYmTBhgrUV2cfpkuY3N4TAgQMHdM6ePXv0tyUAmiIQzQLcguMclskJ4LYBDXP+NYCW0TZ3QsYC9Ez79++3fJ7LNXg014+WAIYIQeu8/ySwyc8QQnO4SCigcePG2iOZgLTTJPgRwgnEE4FsXMolAAtobZOTkzVt2WuCsU7lypW1QyQwhw8fLtyaLV++PCAkA5EAANZA0+vWLTExUdasWeMTQ9Qi5rOnAU8BzCDPJ0+e6Fl4+vTpeuFK20u3aYT5kyeZiYz27ds3rSsoyQSlfW/7OzHAZTA3dI8ePbKG/ApgzfznhU25LcCdiBmDaJHcTar0Qv5PwDmA+dxcmxaFGkCrQAIh+3DZawcEJS5MO8FVvx2CFsC+OFTvdKDc/WBNGOUqpkePHlqwqBV85zyCCzkhVwgAUwQymuZARTXHIjwJ2gULFmhcOpnnd64RwM4c/2AxaP/u9Z4rBfBiNLtvvwA4uY2TXQ3xdAAAAABJRU5ErkJggg==;" parent="1" vertex="1">
          <mxGeometry x="322.11" y="440" width="37.89" height="30" as="geometry" />
        </mxCell>
        <mxCell id="MIB-RSdA4s0meyl00Pk_-89" value="&lt;div style=&quot;text-align: left&quot;&gt;&lt;span style=&quot;font-size: 8px&quot;&gt;*입력정보&lt;/span&gt;&lt;/div&gt;&lt;font style=&quot;font-size: 8px&quot;&gt;&lt;div style=&quot;text-align: left&quot;&gt;&lt;span&gt;기업명, 한줄소개, 소개이미지&lt;/span&gt;&lt;/div&gt;&lt;div style=&quot;text-align: left&quot;&gt;&lt;span&gt;비즈니스분야, 활용기술, 희망투자단계, 희망투자금액&lt;/span&gt;&lt;/div&gt;&lt;div style=&quot;text-align: left&quot;&gt;&lt;span&gt;대표자명, 직원수, 기업설립일, 홈페이지, 기업주소&lt;/span&gt;&lt;/div&gt;&lt;div style=&quot;text-align: left&quot;&gt;&lt;span&gt;IR/사업계획서, 사업자등록번호, 사업자등록증&lt;/span&gt;&lt;/div&gt;&lt;div style=&quot;text-align: left&quot;&gt;투자일자, 투자단계, 투자금액&lt;/div&gt;&lt;div style=&quot;text-align: left&quot;&gt;&lt;span&gt;서비스명, 한줄소개, 소개이미지&amp;nbsp;&lt;/span&gt;&lt;/div&gt;&lt;/font&gt;" style="text;html=1;resizable=0;autosize=1;align=center;verticalAlign=middle;points=[];fillColor=none;strokeColor=none;rounded=0;" parent="1" vertex="1">
          <mxGeometry x="322.11" y="345" width="250" height="100" as="geometry" />
        </mxCell>
        <mxCell id="MIB-RSdA4s0meyl00Pk_-90" value="" style="endArrow=classic;html=1;" parent="1" edge="1">
          <mxGeometry width="50" height="50" relative="1" as="geometry">
            <mxPoint x="460" y="454.5" as="sourcePoint" />
            <mxPoint x="510" y="454.5" as="targetPoint" />
            <Array as="points">
              <mxPoint x="360" y="455" />
            </Array>
          </mxGeometry>
        </mxCell>
        <mxCell id="MIB-RSdA4s0meyl00Pk_-91" value="&lt;font style=&quot;font-size: 10px&quot;&gt;관리자 승인여부&lt;/font&gt;" style="rhombus;whiteSpace=wrap;html=1;" parent="1" vertex="1">
          <mxGeometry x="510" y="425" width="100" height="60" as="geometry" />
        </mxCell>
        <mxCell id="MIB-RSdA4s0meyl00Pk_-93" value="" style="endArrow=none;html=1;" parent="1" edge="1">
          <mxGeometry width="50" height="50" relative="1" as="geometry">
            <mxPoint x="559.5" y="540" as="sourcePoint" />
            <mxPoint x="560" y="485" as="targetPoint" />
          </mxGeometry>
        </mxCell>
        <mxCell id="MIB-RSdA4s0meyl00Pk_-94" value="" style="endArrow=none;html=1;" parent="1" edge="1">
          <mxGeometry width="50" height="50" relative="1" as="geometry">
            <mxPoint x="610" y="454.5" as="sourcePoint" />
            <mxPoint x="730" y="454" as="targetPoint" />
          </mxGeometry>
        </mxCell>
        <mxCell id="MIB-RSdA4s0meyl00Pk_-95" value="" style="endArrow=classic;html=1;" parent="1" edge="1">
          <mxGeometry width="50" height="50" relative="1" as="geometry">
            <mxPoint x="730" y="455" as="sourcePoint" />
            <mxPoint x="730" y="200" as="targetPoint" />
            <Array as="points" />
          </mxGeometry>
        </mxCell>
        <mxCell id="MIB-RSdA4s0meyl00Pk_-96" value="No" style="text;html=1;resizable=0;autosize=1;align=center;verticalAlign=middle;points=[];fillColor=none;strokeColor=none;rounded=0;" parent="1" vertex="1">
          <mxGeometry x="570" y="485" width="30" height="20" as="geometry" />
        </mxCell>
        <mxCell id="MIB-RSdA4s0meyl00Pk_-97" value="Yes" style="text;html=1;resizable=0;autosize=1;align=center;verticalAlign=middle;points=[];fillColor=none;strokeColor=none;rounded=0;" parent="1" vertex="1">
          <mxGeometry x="610" y="465" width="30" height="20" as="geometry" />
        </mxCell>
        <mxCell id="6u4iVn315F4MA-kKVzM7-2" value="Yes" style="text;html=1;resizable=0;autosize=1;align=center;verticalAlign=middle;points=[];fillColor=none;strokeColor=none;rounded=0;" parent="1" vertex="1">
          <mxGeometry x="120" y="485" width="30" height="20" as="geometry" />
        </mxCell>
        <mxCell id="MIB-RSdA4s0meyl00Pk_-23" value="" style="shape=image;verticalLabelPosition=bottom;labelBackgroundColor=#ffffff;verticalAlign=top;aspect=fixed;imageAspect=0;image=data:image/png,iVBORw0KGgoAAAANSUhEUgAAADAAAAAmCAYAAACCjRgBAAAHOUlEQVRYCdWZZ2gVWxCAY42dxCgWrFExVhSN2HtH8I/5oUSDiopgB1ETxfJDRey9KxqTWGPBiomgInZBVOwFezf2PvIN7yx7dzfee303z7yBye7dc86c6TPnJEz+5xAWLP+fP3+Ws2fPyunTp+Xo0aMyc+ZMGTBggCQkJCj269dPwL59+yqa32acubNmzZJjx44pjXPnzsnXr1+DZcOa71eA27dvy/bt22XUqFHSrl07qVmzpoSFhYUUa9WqpbTHjBmje927d89i0N+LpwBv376V1atXK9GiRYu6mC1RooSUK1dONY5go0ePVpw4caJaZNWqVZKamqq4cuVKmTFjhiQlJVnzWINFoAEtp0KKFy8uXbp0kXXr1snHjx9/K4NLgB07dkjVqlUtovny5ZO6devKlClTZN68eXLjxg15+fKlZGVl/ZZwIIPQgNbNmzeV9tSpU6VOnTqSP39+a38svnv37mzJ+QiApow2YHru3Lly+fLlbBfn1MCVK1dkzpw5Urt2bYufZcuWeW5nCfD06VPBdAUKFFA3IFj/Nnz69EkmTZokeEHZsmXl3bt3LpYsAa5du6bSli9fPiTu4drpDz88fPhQSpUqJYUKFZJnz565qFgCXL9+XcLDw1UITLd27Vq/AeSiFsIPxMfSpUulWrVqylNUVJQ8f/7ctYOnACYOYmJiZMSIEZKeni4vXrxwLQ71h8ePH+tegwcPlujoaMv/8+TJIyVLlvQvABNbtmyphcZIboQpXbq0IBApcOHChbJkyRI5c+aMvHnzxgfxWyeQCp3zTpw4IYsWLVJaQ4cOVdqRkZEW0+xLfZg/f740bNhQvcOvBVjUuXNn3f/Dhw+qDSxQo0YNDSQjjP1ZpEgRYWOD1atXl+bNm0vHjh0VmzVrpto04zwLFy7sw6ihhwuz19ixY2Xfvn1ilBEbG6v7ByRAhw4dnAqUnz9/Cqlt69atsmLFCmWsTZs20qJFCylTpownM4Ypr2eFChXU0tDo2rWrFixoUw/YywmNGjXS2hCQAFTAYACiJ0+eDApxp2AgYAvkzZtX0A7azi2AcgjgYsWK+Q9ik0YpaOPGjRNS69+CS5cuybBhw6RgwYLqogGnUTKR8VuqMsFItjh06JDkZHV+//69Bi6tNl2v4YFnUGm0bdu2kpaWppnEToR3cjPNVv/+/WXx4sWKFLyLFy9q9ab4+EP6fzpds75Pnz5Ks1KlSj5M487t27cXmkv6MpQZUBB36tRJvYZscP78ea0JELJ3qE7B+E1bTIrE1E7Ehxnzap3ttFBQt27ddE9cyACpnXn0a07wqcRMwmW8gFPTkSNHZMuWLdqlQrR169bSqlUradCggfYqdma83jlbkBJZw9ru3burJaB5/Phxr2312+vXr2XXrl1CbXKCSwC0/Sdw69YtwT3IGlRZO/INa969e9cvaWhs3LhR1q9fLxs2bJDMzMzfrvERgIMEVZIY+K/h8OHD0rRpU584MFbEwjt37vRkyUcAWlaziODKyMiQL1++eC4M5cdp06bpvgQq52I0f+rUKdm8ebNwSouIiNDx+Ph41wWAjwAQoPe29yr16tWTIUOGyN69e+XChQuh5FtpzZ49W5nr2bOn3Llzx5M+2QceUC5PO/gIwAQC6+rVqzJo0CBLcmMVnpwVEIpx+nWDKSkp2ssQcLQKJp3yG3zw4IEGIvONO9y/f1/TI0Ht1QPZGeW9V69eKsTBgwetIZcA9mYOybdt2yaTJ0+W+vXrS8WKFZWAXSDnO9UcC9Klgrgl1dReIEeOHKkMGK06Lfvjxw/p3bu3DBw40EcwzgukYgRmDuASILs0ymSTSgnyTZs2aann/ADSmTZp0kR7d84NnCdAenpSJ2O02RRKbja+f/8uVapU0THlxPYHa5ByaWmcEBcXp0p89eqVDlkCmDMxZfzfAszRdoDZuQbVG+uNHz/e2o5TH3dB3I7QvCEENyOkVHOgp+1mHWkZsATAPJiaQOZiKqeBq0UYmTBhgrUV2cfpkuY3N4TAgQMHdM6ePXv0tyUAmiIQzQLcguMclskJ4LYBDXP+NYCW0TZ3QsYC9Ez79++3fJ7LNXg014+WAIYIQeu8/ySwyc8QQnO4SCigcePG2iOZgLTTJPgRwgnEE4FsXMolAAtobZOTkzVt2WuCsU7lypW1QyQwhw8fLtyaLV++PCAkA5EAANZA0+vWLTExUdasWeMTQ9Qi5rOnAU8BzCDPJ0+e6Fl4+vTpeuFK20u3aYT5kyeZiYz27ds3rSsoyQSlfW/7OzHAZTA3dI8ePbKG/ApgzfznhU25LcCdiBmDaJHcTar0Qv5PwDmA+dxcmxaFGkCrQAIh+3DZawcEJS5MO8FVvx2CFsC+OFTvdKDc/WBNGOUqpkePHlqwqBV85zyCCzkhVwgAUwQymuZARTXHIjwJ2gULFmhcOpnnd64RwM4c/2AxaP/u9Z4rBfBiNLtvvwA4uY2TXQ3xdAAAAABJRU5ErkJggg==;" parent="1" vertex="1">
          <mxGeometry x="404" y="105" width="37.89" height="30" as="geometry" />
        </mxCell>
        <mxCell id="6u4iVn315F4MA-kKVzM7-10" value="" style="endArrow=none;dashed=1;html=1;dashPattern=1 3;strokeWidth=2;" parent="1" target="MIB-RSdA4s0meyl00Pk_-23" edge="1">
          <mxGeometry width="50" height="50" relative="1" as="geometry">
            <mxPoint x="420" y="160" as="sourcePoint" />
            <mxPoint x="420" y="120" as="targetPoint" />
          </mxGeometry>
        </mxCell>
        <mxCell id="2rvIfLTeBBXT0Hzw1drn-4" value="" style="endArrow=classic;html=1;" parent="1" edge="1">
          <mxGeometry width="50" height="50" relative="1" as="geometry">
            <mxPoint x="109.5" y="120" as="sourcePoint" />
            <mxPoint x="109" y="420" as="targetPoint" />
          </mxGeometry>
        </mxCell>
        <mxCell id="2rvIfLTeBBXT0Hzw1drn-6" value="" style="endArrow=classic;html=1;" parent="1" edge="1">
          <mxGeometry width="50" height="50" relative="1" as="geometry">
            <mxPoint x="150" y="180" as="sourcePoint" />
            <mxPoint x="210" y="179.5" as="targetPoint" />
          </mxGeometry>
        </mxCell>
        <mxCell id="2rvIfLTeBBXT0Hzw1drn-7" value="No" style="text;html=1;resizable=0;autosize=1;align=center;verticalAlign=middle;points=[];fillColor=none;strokeColor=none;rounded=0;" parent="1" vertex="1">
          <mxGeometry x="150" y="150" width="30" height="20" as="geometry" />
        </mxCell>
        <mxCell id="2rvIfLTeBBXT0Hzw1drn-8" value="Yes" style="text;html=1;resizable=0;autosize=1;align=center;verticalAlign=middle;points=[];fillColor=none;strokeColor=none;rounded=0;" parent="1" vertex="1">
          <mxGeometry x="120" y="200" width="30" height="20" as="geometry" />
        </mxCell>
        <mxCell id="2rvIfLTeBBXT0Hzw1drn-9" value="스타트업 &lt;br&gt;선택여부" style="rhombus;whiteSpace=wrap;html=1;" parent="1" vertex="1">
          <mxGeometry x="70" y="150" width="80" height="60" as="geometry" />
        </mxCell>
      </root>
    </mxGraphModel>
  </diagram>
</mxfile>
